<svg width="377" height="412" viewBox="0 0 377 412" fill="none" xmlns="http://www.w3.org/2000/svg">
<g filter="url(#filter0_d_2904_2636)">
<rect x="73" y="17" width="230" height="370" rx="40" fill="url(#paint0_linear_2904_2636)" fill-opacity="0.12" shape-rendering="crispEdges"/>
<rect x="70" y="14" width="236" height="376" rx="43" stroke="#EEEEEE" stroke-width="6" shape-rendering="crispEdges"/>
<path d="M160 29L215 29" stroke="#EEEEEE" stroke-width="6" stroke-linecap="round"/>
<path d="M143 382L233 382" stroke="#EEEEEE" stroke-width="3" stroke-linecap="round"/>
<path d="M88.2244 324.577C88.0316 324.577 87.8838 324.526 87.7809 324.423C87.6781 324.314 87.6267 324.159 87.6267 323.96V320.316C87.6267 320.117 87.6781 319.966 87.7809 319.863C87.8838 319.76 88.0284 319.708 88.2148 319.708C88.4012 319.708 88.5458 319.76 88.6486 319.863C88.7515 319.966 88.8029 320.117 88.8029 320.316V320.971L88.6968 320.73C88.8382 320.39 89.0568 320.133 89.3524 319.959C89.6545 319.779 89.9951 319.689 90.3744 319.689C90.7536 319.689 91.0653 319.76 91.3095 319.901C91.5538 320.043 91.737 320.258 91.8591 320.547C91.9812 320.83 92.0423 321.19 92.0423 321.627V323.96C92.0423 324.159 91.9908 324.314 91.888 324.423C91.7852 324.526 91.6373 324.577 91.4445 324.577C91.2517 324.577 91.1006 324.526 90.9914 324.423C90.8885 324.314 90.8371 324.159 90.8371 323.96V321.685C90.8371 321.318 90.7664 321.052 90.625 320.885C90.4901 320.718 90.2779 320.634 89.9887 320.634C89.6352 320.634 89.3524 320.746 89.1403 320.971C88.9346 321.19 88.8318 321.482 88.8318 321.849V323.96C88.8318 324.371 88.6293 324.577 88.2244 324.577ZM95.5898 324.596C95.0563 324.596 94.5968 324.497 94.2111 324.298C93.8255 324.098 93.5266 323.815 93.3145 323.449C93.1088 323.083 93.006 322.649 93.006 322.148C93.006 321.659 93.1056 321.232 93.3049 320.865C93.5105 320.499 93.7901 320.213 94.1436 320.007C94.5036 319.795 94.9117 319.689 95.368 319.689C95.7023 319.689 96.0011 319.744 96.2646 319.853C96.5346 319.962 96.7628 320.12 96.9492 320.325C97.142 320.531 97.2866 320.782 97.383 321.077C97.4858 321.367 97.5373 321.694 97.5373 322.061C97.5373 322.177 97.4955 322.266 97.4119 322.331C97.3348 322.389 97.2223 322.418 97.0745 322.418H93.9797V321.723H96.6889L96.5346 321.868C96.5346 321.572 96.4896 321.325 96.3996 321.126C96.3161 320.926 96.1907 320.775 96.0236 320.673C95.8629 320.563 95.6605 320.509 95.4162 320.509C95.1463 320.509 94.9149 320.573 94.7221 320.701C94.5357 320.824 94.3911 321 94.2882 321.232C94.1918 321.457 94.1436 321.727 94.1436 322.042V322.109C94.1436 322.636 94.2657 323.031 94.51 323.295C94.7606 323.552 95.127 323.681 95.6091 323.681C95.7762 323.681 95.9626 323.661 96.1682 323.623C96.3803 323.578 96.5796 323.504 96.766 323.401C96.901 323.324 97.0199 323.292 97.1227 323.305C97.2255 323.311 97.3059 323.346 97.3637 323.411C97.428 323.475 97.4666 323.555 97.4794 323.652C97.4923 323.742 97.473 323.835 97.4216 323.931C97.3766 324.028 97.2962 324.111 97.1805 324.182C96.9556 324.323 96.6953 324.429 96.3996 324.5C96.1104 324.564 95.8404 324.596 95.5898 324.596ZM100.238 324.577C100.078 324.577 99.9396 324.539 99.8239 324.461C99.7082 324.378 99.615 324.249 99.5443 324.076L98.1464 320.509C98.0885 320.354 98.0693 320.219 98.0885 320.104C98.1142 319.982 98.1753 319.885 98.2717 319.814C98.3681 319.744 98.4967 319.708 98.6574 319.708C98.7988 319.708 98.9144 319.744 99.0044 319.814C99.0944 319.879 99.1715 320.004 99.2358 320.19L100.402 323.401H100.181L101.386 320.113C101.437 319.972 101.505 319.869 101.588 319.805C101.678 319.741 101.794 319.708 101.935 319.708C102.077 319.708 102.192 319.744 102.282 319.814C102.372 319.879 102.44 319.978 102.485 320.113L103.671 323.401H103.468L104.644 320.162C104.709 319.988 104.789 319.869 104.885 319.805C104.988 319.741 105.101 319.708 105.223 319.708C105.377 319.708 105.496 319.747 105.58 319.824C105.663 319.901 105.711 320.001 105.724 320.123C105.737 320.239 105.715 320.367 105.657 320.509L104.268 324.076C104.204 324.243 104.111 324.368 103.989 324.452C103.873 324.535 103.735 324.577 103.574 324.577C103.414 324.577 103.272 324.535 103.15 324.452C103.034 324.368 102.944 324.243 102.88 324.076L101.617 320.73H102.167L100.933 324.066C100.868 324.24 100.778 324.368 100.663 324.452C100.547 324.535 100.406 324.577 100.238 324.577ZM109.87 324.577C109.671 324.577 109.517 324.526 109.407 324.423C109.304 324.314 109.253 324.159 109.253 323.96V320.316C109.253 320.117 109.304 319.966 109.407 319.863C109.51 319.76 109.655 319.708 109.841 319.708C110.028 319.708 110.172 319.76 110.275 319.863C110.378 319.966 110.429 320.117 110.429 320.316V320.923H110.333C110.423 320.538 110.6 320.245 110.863 320.046C111.127 319.847 111.477 319.728 111.914 319.689C112.049 319.676 112.155 319.712 112.232 319.795C112.316 319.872 112.364 319.994 112.377 320.162C112.39 320.322 112.351 320.454 112.261 320.557C112.178 320.653 112.049 320.711 111.875 320.73L111.663 320.75C111.271 320.788 110.976 320.91 110.776 321.116C110.577 321.315 110.477 321.598 110.477 321.964V323.96C110.477 324.159 110.426 324.314 110.323 324.423C110.22 324.526 110.069 324.577 109.87 324.577ZM115.277 324.596C114.743 324.596 114.284 324.497 113.898 324.298C113.512 324.098 113.213 323.815 113.001 323.449C112.796 323.083 112.693 322.649 112.693 322.148C112.693 321.659 112.793 321.232 112.992 320.865C113.197 320.499 113.477 320.213 113.831 320.007C114.19 319.795 114.599 319.689 115.055 319.689C115.389 319.689 115.688 319.744 115.952 319.853C116.221 319.962 116.45 320.12 116.636 320.325C116.829 320.531 116.973 320.782 117.07 321.077C117.173 321.367 117.224 321.694 117.224 322.061C117.224 322.177 117.182 322.266 117.099 322.331C117.022 322.389 116.909 322.418 116.761 322.418H113.667V321.723H116.376L116.221 321.868C116.221 321.572 116.177 321.325 116.087 321.126C116.003 320.926 115.878 320.775 115.711 320.673C115.55 320.563 115.347 320.509 115.103 320.509C114.833 320.509 114.602 320.573 114.409 320.701C114.223 320.824 114.078 321 113.975 321.232C113.879 321.457 113.831 321.727 113.831 322.042V322.109C113.831 322.636 113.953 323.031 114.197 323.295C114.448 323.552 114.814 323.681 115.296 323.681C115.463 323.681 115.649 323.661 115.855 323.623C116.067 323.578 116.266 323.504 116.453 323.401C116.588 323.324 116.707 323.292 116.81 323.305C116.912 323.311 116.993 323.346 117.051 323.411C117.115 323.475 117.153 323.555 117.166 323.652C117.179 323.742 117.16 323.835 117.108 323.931C117.063 324.028 116.983 324.111 116.867 324.182C116.642 324.323 116.382 324.429 116.087 324.5C115.797 324.564 115.527 324.596 115.277 324.596ZM120.357 324.596C119.863 324.596 119.432 324.497 119.066 324.298C118.699 324.092 118.416 323.803 118.217 323.43C118.018 323.057 117.918 322.62 117.918 322.119C117.918 321.739 117.973 321.402 118.082 321.106C118.198 320.804 118.362 320.55 118.574 320.345C118.786 320.133 119.043 319.972 119.345 319.863C119.647 319.747 119.985 319.689 120.357 319.689C120.57 319.689 120.798 319.718 121.042 319.776C121.293 319.834 121.527 319.93 121.746 320.065C121.849 320.129 121.916 320.207 121.948 320.297C121.98 320.386 121.987 320.48 121.967 320.576C121.948 320.666 121.906 320.746 121.842 320.817C121.784 320.881 121.71 320.923 121.62 320.942C121.53 320.955 121.431 320.933 121.322 320.875C121.18 320.791 121.036 320.73 120.888 320.692C120.74 320.647 120.598 320.624 120.463 320.624C120.251 320.624 120.065 320.66 119.904 320.73C119.744 320.795 119.605 320.891 119.49 321.02C119.38 321.142 119.297 321.296 119.239 321.482C119.181 321.669 119.152 321.884 119.152 322.128C119.152 322.604 119.265 322.98 119.49 323.256C119.721 323.526 120.046 323.661 120.463 323.661C120.598 323.661 120.737 323.642 120.878 323.603C121.026 323.565 121.174 323.504 121.322 323.42C121.431 323.362 121.527 323.343 121.611 323.362C121.701 323.382 121.775 323.427 121.832 323.497C121.89 323.562 121.926 323.642 121.939 323.738C121.951 323.828 121.939 323.918 121.9 324.008C121.868 324.098 121.804 324.172 121.707 324.23C121.495 324.359 121.27 324.452 121.032 324.51C120.794 324.567 120.57 324.596 120.357 324.596ZM124.782 324.596C124.293 324.596 123.869 324.497 123.509 324.298C123.149 324.098 122.87 323.815 122.67 323.449C122.471 323.076 122.372 322.639 122.372 322.138C122.372 321.759 122.426 321.421 122.535 321.126C122.651 320.824 122.815 320.566 123.027 320.354C123.239 320.136 123.493 319.972 123.789 319.863C124.084 319.747 124.415 319.689 124.782 319.689C125.27 319.689 125.695 319.789 126.054 319.988C126.414 320.187 126.694 320.47 126.893 320.836C127.092 321.203 127.192 321.637 127.192 322.138C127.192 322.517 127.134 322.858 127.019 323.16C126.909 323.462 126.749 323.722 126.536 323.941C126.324 324.153 126.071 324.317 125.775 324.433C125.479 324.542 125.148 324.596 124.782 324.596ZM124.782 323.681C125.02 323.681 125.229 323.623 125.408 323.507C125.588 323.391 125.727 323.221 125.823 322.996C125.926 322.765 125.977 322.479 125.977 322.138C125.977 321.624 125.868 321.241 125.65 320.991C125.431 320.734 125.142 320.605 124.782 320.605C124.544 320.605 124.335 320.663 124.155 320.779C123.975 320.888 123.834 321.058 123.731 321.29C123.635 321.514 123.586 321.797 123.586 322.138C123.586 322.646 123.696 323.031 123.914 323.295C124.133 323.552 124.422 323.681 124.782 323.681ZM128.804 324.577C128.605 324.577 128.45 324.526 128.341 324.423C128.238 324.314 128.187 324.159 128.187 323.96V320.316C128.187 320.117 128.238 319.966 128.341 319.863C128.444 319.76 128.588 319.708 128.775 319.708C128.961 319.708 129.106 319.76 129.209 319.863C129.312 319.966 129.363 320.117 129.363 320.316V320.923H129.267C129.357 320.538 129.533 320.245 129.797 320.046C130.06 319.847 130.411 319.728 130.848 319.689C130.983 319.676 131.089 319.712 131.166 319.795C131.249 319.872 131.298 319.994 131.31 320.162C131.323 320.322 131.285 320.454 131.195 320.557C131.111 320.653 130.983 320.711 130.809 320.73L130.597 320.75C130.205 320.788 129.909 320.91 129.71 321.116C129.511 321.315 129.411 321.598 129.411 321.964V323.96C129.411 324.159 129.36 324.314 129.257 324.423C129.154 324.526 129.003 324.577 128.804 324.577ZM133.699 324.596C133.288 324.596 132.925 324.497 132.61 324.298C132.301 324.098 132.06 323.815 131.887 323.449C131.713 323.076 131.627 322.639 131.627 322.138C131.627 321.63 131.713 321.196 131.887 320.836C132.06 320.47 132.301 320.187 132.61 319.988C132.925 319.789 133.288 319.689 133.699 319.689C134.091 319.689 134.432 319.786 134.721 319.978C135.017 320.171 135.216 320.425 135.319 320.74H135.213V318.233C135.213 318.034 135.264 317.883 135.367 317.78C135.47 317.677 135.618 317.626 135.811 317.626C136.004 317.626 136.151 317.677 136.254 317.78C136.364 317.883 136.418 318.034 136.418 318.233V323.96C136.418 324.159 136.367 324.314 136.264 324.423C136.161 324.526 136.013 324.577 135.82 324.577C135.628 324.577 135.48 324.526 135.377 324.423C135.274 324.314 135.223 324.159 135.223 323.96V323.208L135.329 323.497C135.232 323.832 135.036 324.098 134.741 324.298C134.445 324.497 134.098 324.596 133.699 324.596ZM134.037 323.681C134.275 323.681 134.484 323.623 134.663 323.507C134.843 323.391 134.982 323.221 135.078 322.996C135.181 322.765 135.232 322.479 135.232 322.138C135.232 321.624 135.123 321.241 134.905 320.991C134.686 320.734 134.397 320.605 134.037 320.605C133.799 320.605 133.59 320.663 133.41 320.779C133.23 320.888 133.089 321.058 132.986 321.29C132.89 321.514 132.841 321.797 132.841 322.138C132.841 322.646 132.951 323.031 133.169 323.295C133.388 323.552 133.677 323.681 134.037 323.681ZM138.265 324.567C138.073 324.567 137.925 324.51 137.822 324.394C137.719 324.278 137.668 324.118 137.668 323.912V320.374C137.668 320.162 137.719 320.001 137.822 319.892C137.925 319.776 138.073 319.718 138.265 319.718C138.458 319.718 138.606 319.776 138.709 319.892C138.818 320.001 138.873 320.162 138.873 320.374V323.912C138.873 324.118 138.821 324.278 138.719 324.394C138.616 324.51 138.465 324.567 138.265 324.567ZM138.265 318.821C138.041 318.821 137.864 318.767 137.735 318.658C137.613 318.542 137.552 318.384 137.552 318.185C137.552 317.979 137.613 317.822 137.735 317.713C137.864 317.603 138.041 317.549 138.265 317.549C138.497 317.549 138.674 317.603 138.796 317.713C138.918 317.822 138.979 317.979 138.979 318.185C138.979 318.384 138.918 318.542 138.796 318.658C138.674 318.767 138.497 318.821 138.265 318.821ZM140.723 324.577C140.53 324.577 140.382 324.526 140.279 324.423C140.176 324.314 140.125 324.159 140.125 323.96V320.316C140.125 320.117 140.176 319.966 140.279 319.863C140.382 319.76 140.527 319.708 140.713 319.708C140.9 319.708 141.044 319.76 141.147 319.863C141.25 319.966 141.301 320.117 141.301 320.316V320.971L141.195 320.73C141.337 320.39 141.555 320.133 141.851 319.959C142.153 319.779 142.494 319.689 142.873 319.689C143.252 319.689 143.564 319.76 143.808 319.901C144.052 320.043 144.235 320.258 144.357 320.547C144.48 320.83 144.541 321.19 144.541 321.627V323.96C144.541 324.159 144.489 324.314 144.386 324.423C144.284 324.526 144.136 324.577 143.943 324.577C143.75 324.577 143.599 324.526 143.49 324.423C143.387 324.314 143.336 324.159 143.336 323.96V321.685C143.336 321.318 143.265 321.052 143.123 320.885C142.988 320.718 142.776 320.634 142.487 320.634C142.134 320.634 141.851 320.746 141.639 320.971C141.433 321.19 141.33 321.482 141.33 321.849V323.96C141.33 324.371 141.128 324.577 140.723 324.577ZM147.963 326.332C147.616 326.332 147.278 326.3 146.951 326.235C146.629 326.171 146.337 326.071 146.073 325.937C145.951 325.872 145.868 325.795 145.823 325.705C145.784 325.615 145.771 325.522 145.784 325.426C145.803 325.336 145.842 325.255 145.9 325.185C145.964 325.114 146.041 325.066 146.131 325.04C146.221 325.014 146.314 325.027 146.411 325.078C146.693 325.22 146.96 325.31 147.211 325.348C147.468 325.393 147.686 325.416 147.866 325.416C148.297 325.416 148.618 325.31 148.831 325.098C149.049 324.892 149.158 324.584 149.158 324.172V323.305H149.245C149.149 323.632 148.946 323.896 148.638 324.095C148.336 324.288 147.992 324.384 147.606 324.384C147.182 324.384 146.812 324.288 146.497 324.095C146.182 323.896 145.938 323.619 145.765 323.266C145.591 322.912 145.504 322.501 145.504 322.032C145.504 321.678 145.553 321.36 145.649 321.077C145.752 320.788 145.893 320.541 146.073 320.335C146.26 320.129 146.481 319.972 146.738 319.863C147.002 319.747 147.291 319.689 147.606 319.689C148.005 319.689 148.352 319.789 148.647 319.988C148.949 320.181 149.145 320.438 149.235 320.759L149.139 321V320.316C149.139 320.117 149.19 319.966 149.293 319.863C149.403 319.76 149.55 319.708 149.737 319.708C149.93 319.708 150.077 319.76 150.18 319.863C150.283 319.966 150.335 320.117 150.335 320.316V324.028C150.335 324.792 150.132 325.368 149.727 325.753C149.322 326.139 148.734 326.332 147.963 326.332ZM147.934 323.468C148.185 323.468 148.4 323.411 148.58 323.295C148.76 323.179 148.898 323.015 148.994 322.803C149.097 322.585 149.149 322.328 149.149 322.032C149.149 321.588 149.039 321.241 148.821 320.991C148.602 320.734 148.307 320.605 147.934 320.605C147.683 320.605 147.468 320.663 147.288 320.779C147.108 320.894 146.967 321.058 146.864 321.27C146.767 321.482 146.719 321.736 146.719 322.032C146.719 322.475 146.828 322.826 147.047 323.083C147.265 323.34 147.561 323.468 147.934 323.468Z" fill="black"/>
<path d="M89.8923 337.587C89.1017 337.587 88.4976 337.288 88.0798 336.69C87.6684 336.086 87.4628 335.222 87.4628 334.097C87.4628 333.332 87.556 332.692 87.7424 332.178C87.9288 331.664 88.2019 331.275 88.5618 331.012C88.9218 330.748 89.3653 330.616 89.8923 330.616C90.6893 330.616 91.2935 330.912 91.7048 331.503C92.1162 332.088 92.3218 332.949 92.3218 334.087C92.3218 334.839 92.2286 335.475 92.0423 335.996C91.8559 336.517 91.5827 336.912 91.2228 337.182C90.8628 337.452 90.4194 337.587 89.8923 337.587ZM89.8923 336.758C90.3872 336.758 90.7504 336.542 90.9817 336.112C91.2196 335.675 91.3385 335 91.3385 334.087C91.3385 333.168 91.2196 332.5 90.9817 332.082C90.7504 331.658 90.3872 331.445 89.8923 331.445C89.4038 331.445 89.0407 331.658 88.8029 332.082C88.5651 332.5 88.4462 333.168 88.4462 334.087C88.4462 335 88.5651 335.675 88.8029 336.112C89.0407 336.542 89.4038 336.758 89.8923 336.758ZM95.6732 337.587C94.8826 337.587 94.2784 337.288 93.8606 336.69C93.4493 336.086 93.2436 335.222 93.2436 334.097C93.2436 333.332 93.3368 332.692 93.5232 332.178C93.7096 331.664 93.9828 331.275 94.3427 331.012C94.7026 330.748 95.1461 330.616 95.6732 330.616C96.4701 330.616 97.0743 330.912 97.4857 331.503C97.897 332.088 98.1027 332.949 98.1027 334.087C98.1027 334.839 98.0095 335.475 97.8231 335.996C97.6367 336.517 97.3636 336.912 97.0036 337.182C96.6437 337.452 96.2002 337.587 95.6732 337.587ZM95.6732 336.758C96.1681 336.758 96.5312 336.542 96.7626 336.112C97.0004 335.675 97.1193 335 97.1193 334.087C97.1193 333.168 97.0004 332.5 96.7626 332.082C96.5312 331.658 96.1681 331.445 95.6732 331.445C95.1847 331.445 94.8215 331.658 94.5837 332.082C94.3459 332.5 94.227 333.168 94.227 334.087C94.227 335 94.3459 335.675 94.5837 336.112C94.8215 336.542 95.1847 336.758 95.6732 336.758ZM99.7186 337.539C99.5322 337.539 99.3812 337.481 99.2655 337.365C99.1498 337.249 99.092 337.102 99.092 336.922C99.092 336.742 99.1498 336.597 99.2655 336.488C99.3812 336.372 99.5322 336.314 99.7186 336.314C99.905 336.314 100.053 336.372 100.162 336.488C100.271 336.597 100.326 336.742 100.326 336.922C100.326 337.102 100.271 337.249 100.162 337.365C100.053 337.481 99.905 337.539 99.7186 337.539ZM99.7186 333.981C99.5322 333.981 99.3812 333.923 99.2655 333.807C99.1498 333.692 99.092 333.547 99.092 333.374C99.092 333.187 99.1498 333.039 99.2655 332.93C99.3812 332.814 99.5322 332.757 99.7186 332.757C99.905 332.757 100.053 332.814 100.162 332.93C100.271 333.039 100.326 333.187 100.326 333.374C100.326 333.547 100.271 333.692 100.162 333.807C100.053 333.923 99.905 333.981 99.7186 333.981ZM103.742 337.587C102.951 337.587 102.347 337.288 101.929 336.69C101.518 336.086 101.312 335.222 101.312 334.097C101.312 333.332 101.406 332.692 101.592 332.178C101.778 331.664 102.051 331.275 102.411 331.012C102.771 330.748 103.215 330.616 103.742 330.616C104.539 330.616 105.143 330.912 105.554 331.503C105.966 332.088 106.171 332.949 106.171 334.087C106.171 334.839 106.078 335.475 105.892 335.996C105.705 336.517 105.432 336.912 105.072 337.182C104.712 337.452 104.269 337.587 103.742 337.587ZM103.742 336.758C104.237 336.758 104.6 336.542 104.831 336.112C105.069 335.675 105.188 335 105.188 334.087C105.188 333.168 105.069 332.5 104.831 332.082C104.6 331.658 104.237 331.445 103.742 331.445C103.253 331.445 102.89 331.658 102.652 332.082C102.415 332.5 102.296 333.168 102.296 334.087C102.296 335 102.415 335.675 102.652 336.112C102.89 336.542 103.253 336.758 103.742 336.758ZM109.417 337.587C109.057 337.587 108.69 337.539 108.318 337.442C107.945 337.339 107.62 337.188 107.344 336.989C107.241 336.925 107.17 336.848 107.132 336.758C107.1 336.661 107.093 336.574 107.112 336.497C107.132 336.414 107.17 336.343 107.228 336.285C107.292 336.227 107.37 336.195 107.46 336.189C107.55 336.176 107.649 336.202 107.758 336.266C108.035 336.433 108.305 336.555 108.568 336.632C108.832 336.703 109.105 336.738 109.388 336.738C109.696 336.738 109.957 336.693 110.169 336.603C110.381 336.513 110.538 336.382 110.641 336.208C110.75 336.035 110.805 335.826 110.805 335.581C110.805 335.215 110.683 334.942 110.439 334.762C110.201 334.576 109.854 334.482 109.397 334.482H108.742C108.594 334.482 108.481 334.447 108.404 334.376C108.327 334.299 108.289 334.193 108.289 334.058C108.289 333.93 108.327 333.83 108.404 333.759C108.481 333.682 108.594 333.644 108.742 333.644H109.301C109.577 333.644 109.812 333.599 110.005 333.509C110.198 333.412 110.345 333.28 110.448 333.113C110.558 332.94 110.612 332.731 110.612 332.487C110.612 332.159 110.503 331.908 110.284 331.735C110.072 331.555 109.761 331.465 109.349 331.465C109.086 331.465 108.835 331.5 108.597 331.571C108.366 331.641 108.125 331.767 107.874 331.947C107.778 332.011 107.684 332.04 107.595 332.034C107.511 332.021 107.437 331.989 107.373 331.937C107.315 331.879 107.273 331.809 107.247 331.725C107.228 331.641 107.235 331.555 107.267 331.465C107.299 331.375 107.363 331.298 107.46 331.233C107.729 331.034 108.035 330.883 108.375 330.78C108.716 330.671 109.066 330.616 109.426 330.616C109.876 330.616 110.262 330.687 110.583 330.828C110.911 330.97 111.158 331.172 111.326 331.436C111.499 331.699 111.586 332.014 111.586 332.381C111.586 332.657 111.534 332.908 111.432 333.133C111.329 333.358 111.181 333.55 110.988 333.711C110.802 333.865 110.574 333.975 110.304 334.039V333.933C110.773 334.01 111.136 334.203 111.393 334.511C111.65 334.813 111.779 335.193 111.779 335.649C111.779 336.047 111.682 336.394 111.489 336.69C111.303 336.979 111.033 337.201 110.68 337.355C110.326 337.51 109.905 337.587 109.417 337.587ZM113.568 337.539C113.382 337.539 113.231 337.481 113.115 337.365C112.999 337.249 112.942 337.102 112.942 336.922C112.942 336.742 112.999 336.597 113.115 336.488C113.231 336.372 113.382 336.314 113.568 336.314C113.755 336.314 113.902 336.372 114.012 336.488C114.121 336.597 114.176 336.742 114.176 336.922C114.176 337.102 114.121 337.249 114.012 337.365C113.902 337.481 113.755 337.539 113.568 337.539ZM113.568 333.981C113.382 333.981 113.231 333.923 113.115 333.807C112.999 333.692 112.942 333.547 112.942 333.374C112.942 333.187 112.999 333.039 113.115 332.93C113.231 332.814 113.382 332.757 113.568 332.757C113.755 332.757 113.902 332.814 114.012 332.93C114.121 333.039 114.176 333.187 114.176 333.374C114.176 333.547 114.121 333.692 114.012 333.807C113.902 333.923 113.755 333.981 113.568 333.981ZM116.193 337.5C116.059 337.5 115.952 337.461 115.875 337.384C115.798 337.307 115.76 337.204 115.76 337.076C115.76 336.941 115.798 336.838 115.875 336.767C115.952 336.697 116.059 336.661 116.193 336.661H117.37V331.532H117.871L116.463 332.429C116.361 332.487 116.264 332.509 116.174 332.496C116.091 332.483 116.017 332.448 115.952 332.39C115.895 332.332 115.853 332.262 115.827 332.178C115.808 332.095 115.814 332.008 115.846 331.918C115.885 331.828 115.952 331.754 116.049 331.696L117.379 330.857C117.489 330.793 117.591 330.742 117.688 330.703C117.791 330.658 117.887 330.636 117.977 330.636C118.086 330.636 118.176 330.668 118.247 330.732C118.324 330.79 118.363 330.889 118.363 331.031V336.661H119.443C119.584 336.661 119.693 336.697 119.77 336.767C119.847 336.838 119.886 336.941 119.886 337.076C119.886 337.211 119.847 337.317 119.77 337.394C119.693 337.465 119.584 337.5 119.443 337.5H116.193ZM121.743 337.5C121.569 337.5 121.444 337.461 121.367 337.384C121.29 337.301 121.251 337.188 121.251 337.047C121.251 336.957 121.274 336.87 121.319 336.787C121.364 336.703 121.428 336.616 121.512 336.526L123.565 334.328C123.88 333.994 124.105 333.689 124.24 333.412C124.381 333.129 124.452 332.847 124.452 332.564C124.452 332.204 124.343 331.931 124.124 331.744C123.906 331.558 123.584 331.465 123.16 331.465C122.903 331.465 122.656 331.503 122.418 331.58C122.18 331.658 121.942 331.783 121.704 331.956C121.608 332.021 121.518 332.05 121.434 332.043C121.351 332.037 121.277 332.005 121.213 331.947C121.155 331.889 121.116 331.818 121.097 331.735C121.078 331.651 121.081 331.564 121.107 331.474C121.132 331.384 121.193 331.307 121.29 331.243C121.553 331.044 121.859 330.889 122.206 330.78C122.553 330.671 122.906 330.616 123.266 330.616C123.735 330.616 124.131 330.69 124.452 330.838C124.78 330.979 125.027 331.188 125.194 331.465C125.362 331.741 125.445 332.079 125.445 332.477C125.445 332.747 125.4 333.01 125.31 333.268C125.227 333.525 125.095 333.788 124.915 334.058C124.741 334.322 124.513 334.601 124.23 334.897L122.283 336.941V336.661H125.349C125.49 336.661 125.599 336.697 125.676 336.767C125.754 336.838 125.792 336.941 125.792 337.076C125.792 337.211 125.754 337.317 125.676 337.394C125.599 337.465 125.49 337.5 125.349 337.5H121.743Z" fill="#8A8E8F"/>
<g filter="url(#filter1_d_2904_2636)">
<rect x="216.543" y="308.099" width="87.1999" height="66.6823" rx="22" transform="rotate(-22 216.543 308.099)" fill="#1D1D1D"/>
<rect x="214.696" y="307.315" width="90.0374" height="69.5198" rx="23.4188" transform="rotate(-22 214.696 307.315)" stroke="white" stroke-width="2.83754"/>
<g clip-path="url(#clip0_2904_2636)">
<path opacity="0.4" d="M265.684 313.418C270.805 311.349 276.633 313.823 278.702 318.944C280.771 324.064 278.297 329.893 273.177 331.961C268.056 334.03 262.227 331.556 260.159 326.436C258.09 321.315 260.564 315.487 265.684 313.418Z" stroke="#FF0000" stroke-width="2.66667"/>
<path fill-rule="evenodd" clip-rule="evenodd" d="M265.64 318.47C266.422 318.154 267.312 318.532 267.628 319.314L270.298 325.922C270.614 326.704 270.236 327.594 269.454 327.91L268.982 328.101C268.2 328.417 267.31 328.039 266.994 327.257L264.324 320.649C264.008 319.867 264.385 318.977 265.168 318.661L265.64 318.47Z" fill="#FF0000"/>
<path fill-rule="evenodd" clip-rule="evenodd" d="M271.742 317.652L274.411 324.26C274.727 325.042 274.35 325.932 273.567 326.248L273.095 326.439C272.313 326.755 271.423 326.377 271.107 325.595L268.437 318.987C268.121 318.205 268.499 317.315 269.281 316.999L269.753 316.808C270.535 316.492 271.426 316.87 271.742 317.652Z" fill="#FF0000"/>
</g>
</g>
<g clip-path="url(#clip1_2904_2636)">
<g filter="url(#filter2_d_2904_2636)">
<rect x="36.1621" y="175.01" width="4.34054" height="56.4271" rx="2.17027" fill="white"/>
</g>
<g filter="url(#filter3_d_2904_2636)">
<rect x="53.5239" y="167.776" width="4.34054" height="70.8955" rx="2.17027" fill="#00FF6E"/>
</g>
<g filter="url(#filter4_d_2904_2636)">
<rect x="68.4121" y="190.926" width="4.34054" height="24.5964" rx="2.17027" fill="#0099FF"/>
</g>
<g filter="url(#filter5_d_2904_2636)">
<rect x="82.8809" y="193.096" width="4.34054" height="20.2559" rx="2.17027" fill="#00FF6E"/>
</g>
<g filter="url(#filter6_d_2904_2636)">
<rect x="97.3491" y="187.309" width="4.34054" height="31.8306" rx="2.17027" fill="#FD8CFF"/>
</g>
<g filter="url(#filter7_d_2904_2636)">
<rect x="111.817" y="194.543" width="4.34054" height="17.3622" rx="2.17027" fill="#FF006F"/>
</g>
<g filter="url(#filter8_d_2904_2636)">
<rect x="126.286" y="189.479" width="4.34054" height="27.4901" rx="2.17027" fill="#FFFB00"/>
</g>
<g filter="url(#filter9_d_2904_2636)">
<rect x="143.648" y="190.926" width="4.34054" height="24.5964" rx="2.17027" fill="#0099FF"/>
</g>
<g filter="url(#filter10_d_2904_2636)">
<rect x="158.116" y="187.309" width="4.34054" height="31.8306" rx="2.17027" fill="#83E8FF"/>
</g>
<g filter="url(#filter11_d_2904_2636)">
<rect x="172.585" y="193.096" width="4.34054" height="20.2559" rx="2.17027" fill="#00FF6E"/>
</g>
<g filter="url(#filter12_d_2904_2636)">
<rect x="187.053" y="187.309" width="4.34054" height="31.8306" rx="2.17027" fill="#FD8CFF"/>
</g>
<g filter="url(#filter13_d_2904_2636)">
<rect x="201.522" y="194.542" width="4.34054" height="17.3622" rx="2.17027" fill="#FF006F"/>
</g>
<g filter="url(#filter14_d_2904_2636)">
<rect x="215.99" y="189.479" width="4.34054" height="27.4901" rx="2.17027" fill="#FFFB00"/>
</g>
<g filter="url(#filter15_d_2904_2636)">
<rect x="233.353" y="190.926" width="4.34054" height="24.5964" rx="2.17027" fill="#0099FF"/>
</g>
<g filter="url(#filter16_d_2904_2636)">
<rect x="247.821" y="187.309" width="4.34054" height="31.8306" rx="2.17027" fill="#83E8FF"/>
</g>
<g filter="url(#filter17_d_2904_2636)">
<rect x="262.29" y="193.096" width="4.34054" height="20.2559" rx="2.17027" fill="#00FF6E"/>
</g>
<g filter="url(#filter18_d_2904_2636)">
<rect x="276.758" y="187.308" width="4.34054" height="31.8306" rx="2.17027" fill="#FD8CFF"/>
</g>
<g filter="url(#filter19_d_2904_2636)">
<rect x="291.227" y="194.543" width="4.34054" height="17.3622" rx="2.17027" fill="#FF006F"/>
</g>
<g filter="url(#filter20_d_2904_2636)">
<rect x="305.695" y="189.479" width="4.34054" height="27.4901" rx="2.17027" fill="#FFFB00"/>
</g>
<g filter="url(#filter21_d_2904_2636)">
<rect x="320.583" y="175.01" width="4.34054" height="56.4271" rx="2.17027" fill="#9DFF00"/>
</g>
<g filter="url(#filter22_d_2904_2636)">
<rect x="337.944" y="167.776" width="4.34054" height="70.8955" rx="2.17027" fill="white"/>
</g>
</g>
<path d="M148.064 121.128C147.733 121.128 147.477 121.043 147.296 120.872C147.125 120.691 147.04 120.435 147.04 120.104V114.056C147.04 113.725 147.125 113.475 147.296 113.304C147.467 113.133 147.707 113.048 148.016 113.048C148.325 113.048 148.565 113.133 148.736 113.304C148.907 113.475 148.992 113.725 148.992 114.056V115.064H148.832C148.981 114.424 149.275 113.939 149.712 113.608C150.149 113.277 150.731 113.08 151.456 113.016C151.68 112.995 151.856 113.053 151.984 113.192C152.123 113.32 152.203 113.523 152.224 113.8C152.245 114.067 152.181 114.285 152.032 114.456C151.893 114.616 151.68 114.712 151.392 114.744L151.04 114.776C150.389 114.84 149.899 115.043 149.568 115.384C149.237 115.715 149.072 116.184 149.072 116.792V120.104C149.072 120.435 148.987 120.691 148.816 120.872C148.645 121.043 148.395 121.128 148.064 121.128ZM157.037 121.16C156.151 121.16 155.389 120.995 154.749 120.664C154.109 120.333 153.613 119.864 153.261 119.256C152.919 118.648 152.749 117.928 152.749 117.096C152.749 116.285 152.914 115.576 153.245 114.968C153.586 114.36 154.05 113.885 154.637 113.544C155.234 113.192 155.911 113.016 156.669 113.016C157.223 113.016 157.719 113.107 158.157 113.288C158.605 113.469 158.983 113.731 159.293 114.072C159.613 114.413 159.853 114.829 160.013 115.32C160.183 115.8 160.269 116.344 160.269 116.952C160.269 117.144 160.199 117.293 160.061 117.4C159.933 117.496 159.746 117.544 159.501 117.544H154.365V116.392H158.861L158.605 116.632C158.605 116.141 158.53 115.731 158.381 115.4C158.242 115.069 158.034 114.819 157.757 114.648C157.49 114.467 157.154 114.376 156.749 114.376C156.301 114.376 155.917 114.483 155.597 114.696C155.287 114.899 155.047 115.192 154.877 115.576C154.717 115.949 154.637 116.397 154.637 116.92V117.032C154.637 117.907 154.839 118.563 155.245 119C155.661 119.427 156.269 119.64 157.069 119.64C157.346 119.64 157.655 119.608 157.997 119.544C158.349 119.469 158.679 119.347 158.989 119.176C159.213 119.048 159.41 118.995 159.581 119.016C159.751 119.027 159.885 119.085 159.981 119.192C160.087 119.299 160.151 119.432 160.173 119.592C160.194 119.741 160.162 119.896 160.077 120.056C160.002 120.216 159.869 120.355 159.677 120.472C159.303 120.707 158.871 120.883 158.381 121C157.901 121.107 157.453 121.16 157.037 121.16ZM165.469 121.16C164.647 121.16 163.933 120.995 163.325 120.664C162.717 120.323 162.247 119.843 161.917 119.224C161.586 118.605 161.421 117.88 161.421 117.048C161.421 116.419 161.511 115.859 161.693 115.368C161.885 114.867 162.157 114.445 162.509 114.104C162.861 113.752 163.287 113.485 163.789 113.304C164.29 113.112 164.85 113.016 165.469 113.016C165.821 113.016 166.199 113.064 166.605 113.16C167.021 113.256 167.41 113.416 167.773 113.64C167.943 113.747 168.055 113.875 168.109 114.024C168.162 114.173 168.173 114.328 168.141 114.488C168.109 114.637 168.039 114.771 167.933 114.888C167.837 114.995 167.714 115.064 167.565 115.096C167.415 115.117 167.25 115.08 167.069 114.984C166.834 114.845 166.594 114.744 166.349 114.68C166.103 114.605 165.869 114.568 165.645 114.568C165.293 114.568 164.983 114.627 164.717 114.744C164.45 114.851 164.221 115.011 164.029 115.224C163.847 115.427 163.709 115.683 163.613 115.992C163.517 116.301 163.469 116.659 163.469 117.064C163.469 117.853 163.655 118.477 164.029 118.936C164.413 119.384 164.951 119.608 165.645 119.608C165.869 119.608 166.098 119.576 166.333 119.512C166.578 119.448 166.823 119.347 167.069 119.208C167.25 119.112 167.41 119.08 167.549 119.112C167.698 119.144 167.821 119.219 167.917 119.336C168.013 119.443 168.071 119.576 168.093 119.736C168.114 119.885 168.093 120.035 168.029 120.184C167.975 120.333 167.869 120.456 167.709 120.552C167.357 120.765 166.983 120.92 166.589 121.016C166.194 121.112 165.821 121.16 165.469 121.16ZM172.811 121.16C172 121.16 171.296 120.995 170.699 120.664C170.102 120.333 169.638 119.864 169.307 119.256C168.976 118.637 168.811 117.912 168.811 117.08C168.811 116.451 168.902 115.891 169.083 115.4C169.275 114.899 169.547 114.472 169.899 114.12C170.251 113.757 170.672 113.485 171.163 113.304C171.654 113.112 172.203 113.016 172.811 113.016C173.622 113.016 174.326 113.181 174.923 113.512C175.52 113.843 175.984 114.312 176.315 114.92C176.646 115.528 176.811 116.248 176.811 117.08C176.811 117.709 176.715 118.275 176.523 118.776C176.342 119.277 176.075 119.709 175.723 120.072C175.371 120.424 174.95 120.696 174.459 120.888C173.968 121.069 173.419 121.16 172.811 121.16ZM172.811 119.64C173.206 119.64 173.552 119.544 173.851 119.352C174.15 119.16 174.379 118.877 174.539 118.504C174.71 118.12 174.795 117.645 174.795 117.08C174.795 116.227 174.614 115.592 174.251 115.176C173.888 114.749 173.408 114.536 172.811 114.536C172.416 114.536 172.07 114.632 171.771 114.824C171.472 115.005 171.238 115.288 171.067 115.672C170.907 116.045 170.827 116.515 170.827 117.08C170.827 117.923 171.008 118.563 171.371 119C171.734 119.427 172.214 119.64 172.811 119.64ZM179.486 121.128C179.155 121.128 178.899 121.043 178.718 120.872C178.547 120.691 178.462 120.435 178.462 120.104V114.056C178.462 113.725 178.547 113.475 178.718 113.304C178.889 113.133 179.129 113.048 179.438 113.048C179.747 113.048 179.987 113.133 180.158 113.304C180.329 113.475 180.414 113.725 180.414 114.056V115.064H180.254C180.403 114.424 180.697 113.939 181.134 113.608C181.571 113.277 182.153 113.08 182.878 113.016C183.102 112.995 183.278 113.053 183.406 113.192C183.545 113.32 183.625 113.523 183.646 113.8C183.667 114.067 183.603 114.285 183.454 114.456C183.315 114.616 183.102 114.712 182.814 114.744L182.462 114.776C181.811 114.84 181.321 115.043 180.99 115.384C180.659 115.715 180.494 116.184 180.494 116.792V120.104C180.494 120.435 180.409 120.691 180.238 120.872C180.067 121.043 179.817 121.128 179.486 121.128ZM187.611 121.16C186.928 121.16 186.325 120.995 185.803 120.664C185.291 120.333 184.891 119.864 184.603 119.256C184.315 118.637 184.171 117.912 184.171 117.08C184.171 116.237 184.315 115.517 184.603 114.92C184.891 114.312 185.291 113.843 185.803 113.512C186.325 113.181 186.928 113.016 187.611 113.016C188.261 113.016 188.827 113.176 189.307 113.496C189.797 113.816 190.128 114.237 190.299 114.76H190.123V110.6C190.123 110.269 190.208 110.019 190.379 109.848C190.549 109.677 190.795 109.592 191.115 109.592C191.435 109.592 191.68 109.677 191.851 109.848C192.032 110.019 192.123 110.269 192.123 110.6V120.104C192.123 120.435 192.037 120.691 191.867 120.872C191.696 121.043 191.451 121.128 191.131 121.128C190.811 121.128 190.565 121.043 190.395 120.872C190.224 120.691 190.139 120.435 190.139 120.104V118.856L190.315 119.336C190.155 119.891 189.829 120.333 189.339 120.664C188.848 120.995 188.272 121.16 187.611 121.16ZM188.171 119.64C188.565 119.64 188.912 119.544 189.211 119.352C189.509 119.16 189.739 118.877 189.899 118.504C190.069 118.12 190.155 117.645 190.155 117.08C190.155 116.227 189.973 115.592 189.611 115.176C189.248 114.749 188.768 114.536 188.171 114.536C187.776 114.536 187.429 114.632 187.131 114.824C186.832 115.005 186.597 115.288 186.427 115.672C186.267 116.045 186.187 116.515 186.187 117.08C186.187 117.923 186.368 118.563 186.731 119C187.093 119.427 187.573 119.64 188.171 119.64ZM195.188 121.112C194.868 121.112 194.623 121.016 194.452 120.824C194.282 120.632 194.196 120.365 194.196 120.024V114.152C194.196 113.8 194.282 113.533 194.452 113.352C194.623 113.16 194.868 113.064 195.188 113.064C195.508 113.064 195.754 113.16 195.924 113.352C196.106 113.533 196.196 113.8 196.196 114.152V120.024C196.196 120.365 196.111 120.632 195.94 120.824C195.77 121.016 195.519 121.112 195.188 121.112ZM195.188 111.576C194.815 111.576 194.522 111.485 194.308 111.304C194.106 111.112 194.004 110.851 194.004 110.52C194.004 110.179 194.106 109.917 194.308 109.736C194.522 109.555 194.815 109.464 195.188 109.464C195.572 109.464 195.866 109.555 196.068 109.736C196.271 109.917 196.372 110.179 196.372 110.52C196.372 110.851 196.271 111.112 196.068 111.304C195.866 111.485 195.572 111.576 195.188 111.576ZM199.266 121.128C198.946 121.128 198.701 121.043 198.53 120.872C198.36 120.691 198.274 120.435 198.274 120.104V114.056C198.274 113.725 198.36 113.475 198.53 113.304C198.701 113.133 198.941 113.048 199.25 113.048C199.56 113.048 199.8 113.133 199.97 113.304C200.141 113.475 200.226 113.725 200.226 114.056V115.144L200.05 114.744C200.285 114.179 200.648 113.752 201.138 113.464C201.64 113.165 202.205 113.016 202.834 113.016C203.464 113.016 203.981 113.133 204.386 113.368C204.792 113.603 205.096 113.96 205.298 114.44C205.501 114.909 205.602 115.507 205.602 116.232V120.104C205.602 120.435 205.517 120.691 205.346 120.872C205.176 121.043 204.93 121.128 204.61 121.128C204.29 121.128 204.04 121.043 203.858 120.872C203.688 120.691 203.602 120.435 203.602 120.104V116.328C203.602 115.72 203.485 115.277 203.25 115C203.026 114.723 202.674 114.584 202.194 114.584C201.608 114.584 201.138 114.771 200.786 115.144C200.445 115.507 200.274 115.992 200.274 116.6V120.104C200.274 120.787 199.938 121.128 199.266 121.128ZM211.282 124.04C210.706 124.04 210.146 123.987 209.602 123.88C209.068 123.773 208.583 123.608 208.146 123.384C207.943 123.277 207.804 123.149 207.73 123C207.666 122.851 207.644 122.696 207.666 122.536C207.698 122.387 207.762 122.253 207.858 122.136C207.964 122.019 208.092 121.939 208.242 121.896C208.391 121.853 208.546 121.875 208.706 121.96C209.175 122.195 209.618 122.344 210.034 122.408C210.46 122.483 210.823 122.52 211.122 122.52C211.836 122.52 212.37 122.344 212.722 121.992C213.084 121.651 213.266 121.139 213.266 120.456V119.016H213.41C213.25 119.56 212.914 119.997 212.402 120.328C211.9 120.648 211.33 120.808 210.69 120.808C209.986 120.808 209.372 120.648 208.85 120.328C208.327 119.997 207.922 119.539 207.634 118.952C207.346 118.365 207.202 117.683 207.202 116.904C207.202 116.317 207.282 115.789 207.442 115.32C207.612 114.84 207.847 114.429 208.146 114.088C208.455 113.747 208.823 113.485 209.25 113.304C209.687 113.112 210.167 113.016 210.69 113.016C211.351 113.016 211.927 113.181 212.418 113.512C212.919 113.832 213.244 114.259 213.394 114.792L213.234 115.192V114.056C213.234 113.725 213.319 113.475 213.49 113.304C213.671 113.133 213.916 113.048 214.226 113.048C214.546 113.048 214.791 113.133 214.962 113.304C215.132 113.475 215.218 113.725 215.218 114.056V120.216C215.218 121.485 214.882 122.44 214.21 123.08C213.538 123.72 212.562 124.04 211.282 124.04ZM211.234 119.288C211.65 119.288 212.007 119.192 212.306 119C212.604 118.808 212.834 118.536 212.994 118.184C213.164 117.821 213.25 117.395 213.25 116.904C213.25 116.168 213.068 115.592 212.706 115.176C212.343 114.749 211.852 114.536 211.234 114.536C210.818 114.536 210.46 114.632 210.162 114.824C209.863 115.016 209.628 115.288 209.458 115.64C209.298 115.992 209.218 116.413 209.218 116.904C209.218 117.64 209.399 118.221 209.762 118.648C210.124 119.075 210.615 119.288 211.234 119.288ZM218.25 121.08C217.887 121.08 217.594 120.968 217.37 120.744C217.157 120.52 217.05 120.232 217.05 119.88C217.05 119.539 217.157 119.261 217.37 119.048C217.594 118.824 217.887 118.712 218.25 118.712C218.623 118.712 218.911 118.824 219.114 119.048C219.327 119.261 219.434 119.539 219.434 119.88C219.434 120.232 219.327 120.52 219.114 120.744C218.911 120.968 218.623 121.08 218.25 121.08ZM222.219 121.08C221.856 121.08 221.563 120.968 221.339 120.744C221.125 120.52 221.019 120.232 221.019 119.88C221.019 119.539 221.125 119.261 221.339 119.048C221.563 118.824 221.856 118.712 222.219 118.712C222.592 118.712 222.88 118.824 223.083 119.048C223.296 119.261 223.403 119.539 223.403 119.88C223.403 120.232 223.296 120.52 223.083 120.744C222.88 120.968 222.592 121.08 222.219 121.08ZM226.188 121.08C225.825 121.08 225.532 120.968 225.308 120.744C225.094 120.52 224.988 120.232 224.988 119.88C224.988 119.539 225.094 119.261 225.308 119.048C225.532 118.824 225.825 118.712 226.188 118.712C226.561 118.712 226.849 118.824 227.052 119.048C227.265 119.261 227.372 119.539 227.372 119.88C227.372 120.232 227.265 120.52 227.052 120.744C226.849 120.968 226.561 121.08 226.188 121.08Z" fill="black"/>
</g>
<defs>
<filter id="filter0_d_2904_2636" x="0.4" y="0.4" width="376.2" height="411.2" filterUnits="userSpaceOnUse" color-interpolation-filters="sRGB">
<feFlood flood-opacity="0" result="BackgroundImageFix"/>
<feColorMatrix in="SourceAlpha" type="matrix" values="0 0 0 0 0 0 0 0 0 0 0 0 0 0 0 0 0 0 127 0" result="hardAlpha"/>
<feOffset dy="4"/>
<feGaussianBlur stdDeviation="7.3"/>
<feComposite in2="hardAlpha" operator="out"/>
<feColorMatrix type="matrix" values="0 0 0 0 0 0 0 0 0 0 0 0 0 0 0 0 0 0 0.25 0"/>
<feBlend mode="normal" in2="BackgroundImageFix" result="effect1_dropShadow_2904_2636"/>
<feBlend mode="normal" in="SourceGraphic" in2="effect1_dropShadow_2904_2636" result="shape"/>
</filter>
<filter id="filter1_d_2904_2636" x="186.181" y="250.746" width="166.553" height="155.216" filterUnits="userSpaceOnUse" color-interpolation-filters="sRGB">
<feFlood flood-opacity="0" result="BackgroundImageFix"/>
<feColorMatrix in="SourceAlpha" type="matrix" values="0 0 0 0 0 0 0 0 0 0 0 0 0 0 0 0 0 0 127 0" result="hardAlpha"/>
<feOffset dy="5.67509"/>
<feGaussianBlur stdDeviation="15.1809"/>
<feComposite in2="hardAlpha" operator="out"/>
<feColorMatrix type="matrix" values="0 0 0 0 0 0 0 0 0 0 0 0 0 0 0 0 0 0 0.5 0"/>
<feBlend mode="normal" in2="BackgroundImageFix" result="effect1_dropShadow_2904_2636"/>
<feBlend mode="normal" in="SourceGraphic" in2="effect1_dropShadow_2904_2636" result="shape"/>
</filter>
<filter id="filter2_d_2904_2636" x="34.514" y="175.01" width="7.63646" height="61.3712" filterUnits="userSpaceOnUse" color-interpolation-filters="sRGB">
<feFlood flood-opacity="0" result="BackgroundImageFix"/>
<feColorMatrix in="SourceAlpha" type="matrix" values="0 0 0 0 0 0 0 0 0 0 0 0 0 0 0 0 0 0 127 0" result="hardAlpha"/>
<feOffset dy="3.29613"/>
<feGaussianBlur stdDeviation="0.824032"/>
<feComposite in2="hardAlpha" operator="out"/>
<feColorMatrix type="matrix" values="0 0 0 0 0.992468 0 0 0 0 0.548077 0 0 0 0 1 0 0 0 0.32 0"/>
<feBlend mode="normal" in2="BackgroundImageFix" result="effect1_dropShadow_2904_2636"/>
<feBlend mode="normal" in="SourceGraphic" in2="effect1_dropShadow_2904_2636" result="shape"/>
</filter>
<filter id="filter3_d_2904_2636" x="51.8759" y="167.776" width="7.63646" height="75.8397" filterUnits="userSpaceOnUse" color-interpolation-filters="sRGB">
<feFlood flood-opacity="0" result="BackgroundImageFix"/>
<feColorMatrix in="SourceAlpha" type="matrix" values="0 0 0 0 0 0 0 0 0 0 0 0 0 0 0 0 0 0 127 0" result="hardAlpha"/>
<feOffset dy="3.29613"/>
<feGaussianBlur stdDeviation="0.824032"/>
<feComposite in2="hardAlpha" operator="out"/>
<feColorMatrix type="matrix" values="0 0 0 0 0.992468 0 0 0 0 0.548077 0 0 0 0 1 0 0 0 0.32 0"/>
<feBlend mode="normal" in2="BackgroundImageFix" result="effect1_dropShadow_2904_2636"/>
<feBlend mode="normal" in="SourceGraphic" in2="effect1_dropShadow_2904_2636" result="shape"/>
</filter>
<filter id="filter4_d_2904_2636" x="66.764" y="190.926" width="7.63646" height="29.5406" filterUnits="userSpaceOnUse" color-interpolation-filters="sRGB">
<feFlood flood-opacity="0" result="BackgroundImageFix"/>
<feColorMatrix in="SourceAlpha" type="matrix" values="0 0 0 0 0 0 0 0 0 0 0 0 0 0 0 0 0 0 127 0" result="hardAlpha"/>
<feOffset dy="3.29613"/>
<feGaussianBlur stdDeviation="0.824032"/>
<feComposite in2="hardAlpha" operator="out"/>
<feColorMatrix type="matrix" values="0 0 0 0 0.992468 0 0 0 0 0.548077 0 0 0 0 1 0 0 0 0.32 0"/>
<feBlend mode="normal" in2="BackgroundImageFix" result="effect1_dropShadow_2904_2636"/>
<feBlend mode="normal" in="SourceGraphic" in2="effect1_dropShadow_2904_2636" result="shape"/>
</filter>
<filter id="filter5_d_2904_2636" x="81.2328" y="193.096" width="7.63646" height="25.2001" filterUnits="userSpaceOnUse" color-interpolation-filters="sRGB">
<feFlood flood-opacity="0" result="BackgroundImageFix"/>
<feColorMatrix in="SourceAlpha" type="matrix" values="0 0 0 0 0 0 0 0 0 0 0 0 0 0 0 0 0 0 127 0" result="hardAlpha"/>
<feOffset dy="3.29613"/>
<feGaussianBlur stdDeviation="0.824032"/>
<feComposite in2="hardAlpha" operator="out"/>
<feColorMatrix type="matrix" values="0 0 0 0 0.992468 0 0 0 0 0.548077 0 0 0 0 1 0 0 0 0.32 0"/>
<feBlend mode="normal" in2="BackgroundImageFix" result="effect1_dropShadow_2904_2636"/>
<feBlend mode="normal" in="SourceGraphic" in2="effect1_dropShadow_2904_2636" result="shape"/>
</filter>
<filter id="filter6_d_2904_2636" x="95.7011" y="187.309" width="7.63646" height="36.7748" filterUnits="userSpaceOnUse" color-interpolation-filters="sRGB">
<feFlood flood-opacity="0" result="BackgroundImageFix"/>
<feColorMatrix in="SourceAlpha" type="matrix" values="0 0 0 0 0 0 0 0 0 0 0 0 0 0 0 0 0 0 127 0" result="hardAlpha"/>
<feOffset dy="3.29613"/>
<feGaussianBlur stdDeviation="0.824032"/>
<feComposite in2="hardAlpha" operator="out"/>
<feColorMatrix type="matrix" values="0 0 0 0 0.992468 0 0 0 0 0.548077 0 0 0 0 1 0 0 0 0.32 0"/>
<feBlend mode="normal" in2="BackgroundImageFix" result="effect1_dropShadow_2904_2636"/>
<feBlend mode="normal" in="SourceGraphic" in2="effect1_dropShadow_2904_2636" result="shape"/>
</filter>
<filter id="filter7_d_2904_2636" x="110.169" y="194.543" width="7.63646" height="22.3063" filterUnits="userSpaceOnUse" color-interpolation-filters="sRGB">
<feFlood flood-opacity="0" result="BackgroundImageFix"/>
<feColorMatrix in="SourceAlpha" type="matrix" values="0 0 0 0 0 0 0 0 0 0 0 0 0 0 0 0 0 0 127 0" result="hardAlpha"/>
<feOffset dy="3.29613"/>
<feGaussianBlur stdDeviation="0.824032"/>
<feComposite in2="hardAlpha" operator="out"/>
<feColorMatrix type="matrix" values="0 0 0 0 0.992468 0 0 0 0 0.548077 0 0 0 0 1 0 0 0 0.32 0"/>
<feBlend mode="normal" in2="BackgroundImageFix" result="effect1_dropShadow_2904_2636"/>
<feBlend mode="normal" in="SourceGraphic" in2="effect1_dropShadow_2904_2636" result="shape"/>
</filter>
<filter id="filter8_d_2904_2636" x="124.638" y="189.479" width="7.63646" height="32.4342" filterUnits="userSpaceOnUse" color-interpolation-filters="sRGB">
<feFlood flood-opacity="0" result="BackgroundImageFix"/>
<feColorMatrix in="SourceAlpha" type="matrix" values="0 0 0 0 0 0 0 0 0 0 0 0 0 0 0 0 0 0 127 0" result="hardAlpha"/>
<feOffset dy="3.29613"/>
<feGaussianBlur stdDeviation="0.824032"/>
<feComposite in2="hardAlpha" operator="out"/>
<feColorMatrix type="matrix" values="0 0 0 0 0.992468 0 0 0 0 0.548077 0 0 0 0 1 0 0 0 0.32 0"/>
<feBlend mode="normal" in2="BackgroundImageFix" result="effect1_dropShadow_2904_2636"/>
<feBlend mode="normal" in="SourceGraphic" in2="effect1_dropShadow_2904_2636" result="shape"/>
</filter>
<filter id="filter9_d_2904_2636" x="142" y="190.926" width="7.63646" height="29.5406" filterUnits="userSpaceOnUse" color-interpolation-filters="sRGB">
<feFlood flood-opacity="0" result="BackgroundImageFix"/>
<feColorMatrix in="SourceAlpha" type="matrix" values="0 0 0 0 0 0 0 0 0 0 0 0 0 0 0 0 0 0 127 0" result="hardAlpha"/>
<feOffset dy="3.29613"/>
<feGaussianBlur stdDeviation="0.824032"/>
<feComposite in2="hardAlpha" operator="out"/>
<feColorMatrix type="matrix" values="0 0 0 0 0.992468 0 0 0 0 0.548077 0 0 0 0 1 0 0 0 0.32 0"/>
<feBlend mode="normal" in2="BackgroundImageFix" result="effect1_dropShadow_2904_2636"/>
<feBlend mode="normal" in="SourceGraphic" in2="effect1_dropShadow_2904_2636" result="shape"/>
</filter>
<filter id="filter10_d_2904_2636" x="156.468" y="187.309" width="7.63646" height="36.7748" filterUnits="userSpaceOnUse" color-interpolation-filters="sRGB">
<feFlood flood-opacity="0" result="BackgroundImageFix"/>
<feColorMatrix in="SourceAlpha" type="matrix" values="0 0 0 0 0 0 0 0 0 0 0 0 0 0 0 0 0 0 127 0" result="hardAlpha"/>
<feOffset dy="3.29613"/>
<feGaussianBlur stdDeviation="0.824032"/>
<feComposite in2="hardAlpha" operator="out"/>
<feColorMatrix type="matrix" values="0 0 0 0 0.992468 0 0 0 0 0.548077 0 0 0 0 1 0 0 0 0.32 0"/>
<feBlend mode="normal" in2="BackgroundImageFix" result="effect1_dropShadow_2904_2636"/>
<feBlend mode="normal" in="SourceGraphic" in2="effect1_dropShadow_2904_2636" result="shape"/>
</filter>
<filter id="filter11_d_2904_2636" x="170.937" y="193.096" width="7.63646" height="25.2001" filterUnits="userSpaceOnUse" color-interpolation-filters="sRGB">
<feFlood flood-opacity="0" result="BackgroundImageFix"/>
<feColorMatrix in="SourceAlpha" type="matrix" values="0 0 0 0 0 0 0 0 0 0 0 0 0 0 0 0 0 0 127 0" result="hardAlpha"/>
<feOffset dy="3.29613"/>
<feGaussianBlur stdDeviation="0.824032"/>
<feComposite in2="hardAlpha" operator="out"/>
<feColorMatrix type="matrix" values="0 0 0 0 0.992468 0 0 0 0 0.548077 0 0 0 0 1 0 0 0 0.32 0"/>
<feBlend mode="normal" in2="BackgroundImageFix" result="effect1_dropShadow_2904_2636"/>
<feBlend mode="normal" in="SourceGraphic" in2="effect1_dropShadow_2904_2636" result="shape"/>
</filter>
<filter id="filter12_d_2904_2636" x="185.405" y="187.309" width="7.63646" height="36.7748" filterUnits="userSpaceOnUse" color-interpolation-filters="sRGB">
<feFlood flood-opacity="0" result="BackgroundImageFix"/>
<feColorMatrix in="SourceAlpha" type="matrix" values="0 0 0 0 0 0 0 0 0 0 0 0 0 0 0 0 0 0 127 0" result="hardAlpha"/>
<feOffset dy="3.29613"/>
<feGaussianBlur stdDeviation="0.824032"/>
<feComposite in2="hardAlpha" operator="out"/>
<feColorMatrix type="matrix" values="0 0 0 0 0.992468 0 0 0 0 0.548077 0 0 0 0 1 0 0 0 0.32 0"/>
<feBlend mode="normal" in2="BackgroundImageFix" result="effect1_dropShadow_2904_2636"/>
<feBlend mode="normal" in="SourceGraphic" in2="effect1_dropShadow_2904_2636" result="shape"/>
</filter>
<filter id="filter13_d_2904_2636" x="199.874" y="194.542" width="7.63646" height="22.3063" filterUnits="userSpaceOnUse" color-interpolation-filters="sRGB">
<feFlood flood-opacity="0" result="BackgroundImageFix"/>
<feColorMatrix in="SourceAlpha" type="matrix" values="0 0 0 0 0 0 0 0 0 0 0 0 0 0 0 0 0 0 127 0" result="hardAlpha"/>
<feOffset dy="3.29613"/>
<feGaussianBlur stdDeviation="0.824032"/>
<feComposite in2="hardAlpha" operator="out"/>
<feColorMatrix type="matrix" values="0 0 0 0 0.992468 0 0 0 0 0.548077 0 0 0 0 1 0 0 0 0.32 0"/>
<feBlend mode="normal" in2="BackgroundImageFix" result="effect1_dropShadow_2904_2636"/>
<feBlend mode="normal" in="SourceGraphic" in2="effect1_dropShadow_2904_2636" result="shape"/>
</filter>
<filter id="filter14_d_2904_2636" x="214.342" y="189.479" width="7.63646" height="32.4342" filterUnits="userSpaceOnUse" color-interpolation-filters="sRGB">
<feFlood flood-opacity="0" result="BackgroundImageFix"/>
<feColorMatrix in="SourceAlpha" type="matrix" values="0 0 0 0 0 0 0 0 0 0 0 0 0 0 0 0 0 0 127 0" result="hardAlpha"/>
<feOffset dy="3.29613"/>
<feGaussianBlur stdDeviation="0.824032"/>
<feComposite in2="hardAlpha" operator="out"/>
<feColorMatrix type="matrix" values="0 0 0 0 0.992468 0 0 0 0 0.548077 0 0 0 0 1 0 0 0 0.32 0"/>
<feBlend mode="normal" in2="BackgroundImageFix" result="effect1_dropShadow_2904_2636"/>
<feBlend mode="normal" in="SourceGraphic" in2="effect1_dropShadow_2904_2636" result="shape"/>
</filter>
<filter id="filter15_d_2904_2636" x="231.704" y="190.926" width="7.63646" height="29.5406" filterUnits="userSpaceOnUse" color-interpolation-filters="sRGB">
<feFlood flood-opacity="0" result="BackgroundImageFix"/>
<feColorMatrix in="SourceAlpha" type="matrix" values="0 0 0 0 0 0 0 0 0 0 0 0 0 0 0 0 0 0 127 0" result="hardAlpha"/>
<feOffset dy="3.29613"/>
<feGaussianBlur stdDeviation="0.824032"/>
<feComposite in2="hardAlpha" operator="out"/>
<feColorMatrix type="matrix" values="0 0 0 0 0.992468 0 0 0 0 0.548077 0 0 0 0 1 0 0 0 0.32 0"/>
<feBlend mode="normal" in2="BackgroundImageFix" result="effect1_dropShadow_2904_2636"/>
<feBlend mode="normal" in="SourceGraphic" in2="effect1_dropShadow_2904_2636" result="shape"/>
</filter>
<filter id="filter16_d_2904_2636" x="246.173" y="187.309" width="7.63646" height="36.7748" filterUnits="userSpaceOnUse" color-interpolation-filters="sRGB">
<feFlood flood-opacity="0" result="BackgroundImageFix"/>
<feColorMatrix in="SourceAlpha" type="matrix" values="0 0 0 0 0 0 0 0 0 0 0 0 0 0 0 0 0 0 127 0" result="hardAlpha"/>
<feOffset dy="3.29613"/>
<feGaussianBlur stdDeviation="0.824032"/>
<feComposite in2="hardAlpha" operator="out"/>
<feColorMatrix type="matrix" values="0 0 0 0 0.992468 0 0 0 0 0.548077 0 0 0 0 1 0 0 0 0.32 0"/>
<feBlend mode="normal" in2="BackgroundImageFix" result="effect1_dropShadow_2904_2636"/>
<feBlend mode="normal" in="SourceGraphic" in2="effect1_dropShadow_2904_2636" result="shape"/>
</filter>
<filter id="filter17_d_2904_2636" x="260.641" y="193.096" width="7.63646" height="25.2001" filterUnits="userSpaceOnUse" color-interpolation-filters="sRGB">
<feFlood flood-opacity="0" result="BackgroundImageFix"/>
<feColorMatrix in="SourceAlpha" type="matrix" values="0 0 0 0 0 0 0 0 0 0 0 0 0 0 0 0 0 0 127 0" result="hardAlpha"/>
<feOffset dy="3.29613"/>
<feGaussianBlur stdDeviation="0.824032"/>
<feComposite in2="hardAlpha" operator="out"/>
<feColorMatrix type="matrix" values="0 0 0 0 0.992468 0 0 0 0 0.548077 0 0 0 0 1 0 0 0 0.32 0"/>
<feBlend mode="normal" in2="BackgroundImageFix" result="effect1_dropShadow_2904_2636"/>
<feBlend mode="normal" in="SourceGraphic" in2="effect1_dropShadow_2904_2636" result="shape"/>
</filter>
<filter id="filter18_d_2904_2636" x="275.11" y="187.308" width="7.63646" height="36.7748" filterUnits="userSpaceOnUse" color-interpolation-filters="sRGB">
<feFlood flood-opacity="0" result="BackgroundImageFix"/>
<feColorMatrix in="SourceAlpha" type="matrix" values="0 0 0 0 0 0 0 0 0 0 0 0 0 0 0 0 0 0 127 0" result="hardAlpha"/>
<feOffset dy="3.29613"/>
<feGaussianBlur stdDeviation="0.824032"/>
<feComposite in2="hardAlpha" operator="out"/>
<feColorMatrix type="matrix" values="0 0 0 0 0.992468 0 0 0 0 0.548077 0 0 0 0 1 0 0 0 0.32 0"/>
<feBlend mode="normal" in2="BackgroundImageFix" result="effect1_dropShadow_2904_2636"/>
<feBlend mode="normal" in="SourceGraphic" in2="effect1_dropShadow_2904_2636" result="shape"/>
</filter>
<filter id="filter19_d_2904_2636" x="289.578" y="194.543" width="7.63646" height="22.3063" filterUnits="userSpaceOnUse" color-interpolation-filters="sRGB">
<feFlood flood-opacity="0" result="BackgroundImageFix"/>
<feColorMatrix in="SourceAlpha" type="matrix" values="0 0 0 0 0 0 0 0 0 0 0 0 0 0 0 0 0 0 127 0" result="hardAlpha"/>
<feOffset dy="3.29613"/>
<feGaussianBlur stdDeviation="0.824032"/>
<feComposite in2="hardAlpha" operator="out"/>
<feColorMatrix type="matrix" values="0 0 0 0 0.992468 0 0 0 0 0.548077 0 0 0 0 1 0 0 0 0.32 0"/>
<feBlend mode="normal" in2="BackgroundImageFix" result="effect1_dropShadow_2904_2636"/>
<feBlend mode="normal" in="SourceGraphic" in2="effect1_dropShadow_2904_2636" result="shape"/>
</filter>
<filter id="filter20_d_2904_2636" x="304.047" y="189.479" width="7.63646" height="32.4342" filterUnits="userSpaceOnUse" color-interpolation-filters="sRGB">
<feFlood flood-opacity="0" result="BackgroundImageFix"/>
<feColorMatrix in="SourceAlpha" type="matrix" values="0 0 0 0 0 0 0 0 0 0 0 0 0 0 0 0 0 0 127 0" result="hardAlpha"/>
<feOffset dy="3.29613"/>
<feGaussianBlur stdDeviation="0.824032"/>
<feComposite in2="hardAlpha" operator="out"/>
<feColorMatrix type="matrix" values="0 0 0 0 0.992468 0 0 0 0 0.548077 0 0 0 0 1 0 0 0 0.32 0"/>
<feBlend mode="normal" in2="BackgroundImageFix" result="effect1_dropShadow_2904_2636"/>
<feBlend mode="normal" in="SourceGraphic" in2="effect1_dropShadow_2904_2636" result="shape"/>
</filter>
<filter id="filter21_d_2904_2636" x="318.934" y="175.01" width="7.63646" height="61.3712" filterUnits="userSpaceOnUse" color-interpolation-filters="sRGB">
<feFlood flood-opacity="0" result="BackgroundImageFix"/>
<feColorMatrix in="SourceAlpha" type="matrix" values="0 0 0 0 0 0 0 0 0 0 0 0 0 0 0 0 0 0 127 0" result="hardAlpha"/>
<feOffset dy="3.29613"/>
<feGaussianBlur stdDeviation="0.824032"/>
<feComposite in2="hardAlpha" operator="out"/>
<feColorMatrix type="matrix" values="0 0 0 0 0.992468 0 0 0 0 0.548077 0 0 0 0 1 0 0 0 0.32 0"/>
<feBlend mode="normal" in2="BackgroundImageFix" result="effect1_dropShadow_2904_2636"/>
<feBlend mode="normal" in="SourceGraphic" in2="effect1_dropShadow_2904_2636" result="shape"/>
</filter>
<filter id="filter22_d_2904_2636" x="336.296" y="167.776" width="7.63646" height="75.8397" filterUnits="userSpaceOnUse" color-interpolation-filters="sRGB">
<feFlood flood-opacity="0" result="BackgroundImageFix"/>
<feColorMatrix in="SourceAlpha" type="matrix" values="0 0 0 0 0 0 0 0 0 0 0 0 0 0 0 0 0 0 127 0" result="hardAlpha"/>
<feOffset dy="3.29613"/>
<feGaussianBlur stdDeviation="0.824032"/>
<feComposite in2="hardAlpha" operator="out"/>
<feColorMatrix type="matrix" values="0 0 0 0 0.992468 0 0 0 0 0.548077 0 0 0 0 1 0 0 0 0.32 0"/>
<feBlend mode="normal" in2="BackgroundImageFix" result="effect1_dropShadow_2904_2636"/>
<feBlend mode="normal" in="SourceGraphic" in2="effect1_dropShadow_2904_2636" result="shape"/>
</filter>
<linearGradient id="paint0_linear_2904_2636" x1="188" y1="17" x2="188" y2="387" gradientUnits="userSpaceOnUse">
<stop stop-color="#FFFB00"/>
<stop offset="0.683784" stop-color="white"/>
</linearGradient>
<clipPath id="clip0_2904_2636">
<rect width="24" height="24" fill="white" transform="translate(253.836 316.048) rotate(-22)"/>
</clipPath>
<clipPath id="clip1_2904_2636">
<rect x="15" y="159.784" width="347" height="85.4316" rx="37.618" fill="white"/>
</clipPath>
</defs>
</svg>
