<svg width="19" height="18" viewBox="0 0 19 18" fill="none" xmlns="http://www.w3.org/2000/svg">
<g clip-path="url(#clip0_2503_3018)">
<path fill-rule="evenodd" clip-rule="evenodd" d="M13.5737 6.3156L3.69299 4.61924C3.42928 4.55677 3.15172 4.62804 2.95071 4.80982C2.74971 4.9916 2.651 5.26063 2.68673 5.52927C2.71563 5.61332 2.7616 5.69048 2.82176 5.7559L5.65591 9.19569C5.81766 9.43214 5.94528 9.69029 6.03496 9.96243C6.11281 10.2382 6.15137 10.5236 6.14947 10.81L5.72335 15.2466C5.71007 15.3345 5.7151 15.4242 5.73814 15.51C5.85893 15.7522 6.09105 15.9197 6.35901 15.9578C6.627 15.996 6.89661 15.9 7.08027 15.7012L14.3239 8.76944C14.7335 8.40168 14.8926 7.82963 14.7317 7.30316C14.5707 6.7767 14.1189 6.39141 13.5737 6.3156Z" fill="#FFFB00" stroke="#FFFB00" stroke-width="1.17885" stroke-linecap="round" stroke-linejoin="round"/>
</g>
<defs>
<clipPath id="clip0_2503_3018">
<rect width="14" height="14" fill="white" transform="translate(0.759277 4.35254) rotate(-17)"/>
</clipPath>
</defs>
</svg>
